<svg xmlns="http://www.w3.org/2000/svg" viewBox="0 0 1024 1024" width="20" height="20"><g fill="#000" fill-rule="evenodd"><path d="M64 96C64 78.336 78.336 64 96 64l832 0C945.664 64 960 78.336 960 96l0 0C960 113.664 945.664 128 928 128l-832 0C78.336 128 64 113.664 64 96L64 96zM64 864C64 881.664 78.336 896 96 896l832 0c17.664 0 32-14.336 32-32l0 0c0-17.664-14.336-32-32-32l-832 0C78.336 832 64 846.336 64 864L64 864zM320 288C320 305.664 334.336 320 352 320l576 0C945.664 320 960 305.664 960 288l0 0C960 270.336 945.664 256 928 256l-576 0C334.336 256 320 270.336 320 288L320 288zM320 480C320 497.664 334.336 512 352 512l576 0C945.664 512 960 497.664 960 480l0 0C960 462.336 945.664 448 928 448l-576 0C334.336 448 320 462.336 320 480L320 480zM320 672C320 689.664 334.336 704 352 704l576 0c17.664 0 32-14.336 32-32l0 0c0-17.664-14.336-32-32-32l-576 0C334.336 640 320 654.336 320 672L320 672zM100.352 637.312 249.6 488C253.888 483.776 256 478.72 256 473.024S253.888 462.272 249.6 457.984L100.352 308.608C96.064 304.384 91.136 302.4 85.248 302.4c-5.696 0-10.624 1.984-14.976 6.272C66.048 312.896 64 317.888 64 323.648l0 298.752c0 5.76 2.048 10.752 6.272 14.912 4.352 4.288 9.344 6.4 14.976 6.4C91.136 643.712 96.064 641.6 100.352 637.312z" p-id="1863"/></g></svg>