<svg xmlns="http://www.w3.org/2000/svg" viewBox="0 0 1024 1024" width="20" height="20"><g fill="#000" fill-rule="evenodd"><path d="M896 85.333333H298.666667a42.666667 42.666667 0 0 0-42.666667 42.666667v597.333333a42.666667 42.666667 0 0 0 42.666667 42.666667h597.333333a42.666667 42.666667 0 0 0 42.666667-42.666667V128a42.666667 42.666667 0 0 0-42.666667-42.666667z m-42.666667 597.333334H341.333333V170.666667h512v512z"/><path d="M128 938.666667h554.666667v-85.333334H170.666667V341.333333H85.333333v554.666667a42.666667 42.666667 0 0 0 42.666667 42.666667z m384-640v256l213.333333-128z"/></g></svg>