<svg t="1555748657447" class="icon" style="" viewBox="0 0 1024 1024" version="1.1" xmlns="http://www.w3.org/2000/svg" p-id="1984" xmlns:xlink="http://www.w3.org/1999/xlink" width="20" height="20"><defs><style type="text/css"></style></defs><path d="M911.456784 609.398284c-0.544399 0.550539-1.280156 0.723477-1.846044 1.238201l0.25992 0.257873-18.007119 18.000979-0.406253-0.406253c-0.700965 0.821715-0.964978 1.860371-1.735527 2.64013-16.811898 16.97051-44.063565 16.97051-60.875462 0-16.809851-16.972557-16.809851-44.48926 0-61.463864 0.667196-0.673335 1.560542-0.895393 2.258437-1.51347l-0.715291-0.717338 18.005073-18.003026 0.725524 0.725524c0.598634-0.685615 0.810459-1.566682 1.460258-2.222621 16.809851-16.972557 44.063565-16.972557 60.875462 0C928.267659 564.909024 928.267659 592.425727 911.456784 609.398284zM496.797763 198.287065 257.051447 440.377776l0 0c-96.659457 97.590666-96.659457 255.815293 0 353.406982 96.65741 97.590666 253.372661 97.590666 350.030072 0l3.753487-3.759627 113.089661-115.467825 0.002047 0c16.809851-16.97051 44.063565-16.97051 60.873416 0 16.811898 16.972557 16.811898 44.48926 0 61.461817l0.002047 0.002047L671.709445 851.487971l-3.753487 3.759627c-130.278135 131.535779-341.501838 131.535779-471.779973 0-130.278135-131.533732-130.278135-344.797907 0-476.331639l0 0 239.747339-242.092757 0 0c92.455715-93.347015 246.110257-97.106642 338.565972-3.759627 92.455715 93.349061 92.455715 244.696048 0 338.043063l-4.155646 5.457292L560.161906 687.082574c-54.632271 55.159274-141.946896 54.302767-196.581214-0.857531-54.630225-55.159274-54.630225-144.590096 0-199.750393l0 0 133.217071-134.533043c16.809851-16.97051 44.065612-16.97051 60.875462 0 16.809851 16.972557 16.809851 44.491307 0 61.461817L424.456155 547.93442l0 0.002047c-21.011546 21.214161-21.011546 55.612599 0 76.826759 21.013593 21.217231 55.081503 21.217231 76.095096 0l0 0 0 0 213.062584-215.118406 0 0c0-0.002047 0-0.002047 0-0.002047 58.837036-59.399855 58.837036-155.712411 0-215.116359C654.778844 135.124514 555.636846 138.883117 496.797763 198.287065L496.797763 198.287065z" p-id="1985"></path></svg>